<?xml version="1.0" encoding="UTF-8"?>
<svg xmlns="http://www.w3.org/2000/svg" viewBox="0 0 512 512">
  <!-- Minimalist patent-style document with ribbon seal -->
  <defs>
    <linearGradient id="g" x1="0" y1="0" x2="1" y2="1">
      <stop offset="0" stop-color="#166534"/>
      <stop offset="1" stop-color="#0b3d1f"/>
    </linearGradient>
  </defs>

  <!-- Page -->
  <rect x="88" y="64" rx="24" ry="24" width="280" height="384" fill="none" stroke="#111827" stroke-width="20"/>

  <!-- Folded corner -->
  <path d="M328 64 L368 104 L328 104 Z" fill="#111827"/>

  <!-- Lines representing text -->
  <g stroke="#6b7280" stroke-width="12" stroke-linecap="round">
    <line x1="120" y1="140" x2="340" y2="140"/>
    <line x1="120" y1="176" x2="340" y2="176"/>
    <line x1="120" y1="212" x2="300" y2="212"/>
    <line x1="120" y1="248" x2="340" y2="248"/>
    <line x1="120" y1="284" x2="300" y2="284"/>
  </g>

  <!-- Ribbon seal -->
  <circle cx="300" cy="350" r="44" fill="url(#g)" stroke="#0b3d1f" stroke-width="8"/>
  <path d="M286 392 l-18 40 36-12 32 20 -6-42" fill="#166534" stroke="#0b3d1f" stroke-width="6"/>

  <!-- Brand text: Pürpatent (compact) -->
  <text x="128" y="420" font-family="system-ui, -apple-system, Segoe UI, Roboto, Helvetica, Arial" font-size="40" fill="#111827" letter-spacing="1">
    Pür
  </text>

  <!-- Small gavel-like mark to hint at IP/patent (subtle) -->
  <g transform="translate(180,350) scale(0.8)" fill="#111827">
    <rect x="0" y="-6" width="46" height="12" rx="3"/>
    <rect x="40" y="-16" width="14" height="32" rx="3"/>
  </g>
</svg>


